<?xml version="1.0" encoding="utf-8"?>
<!-- Generator: Adobe Illustrator 22.0.1, SVG Export Plug-In . SVG Version: 6.00 Build 0)  -->
<svg version="1.1" id="圖層_1" xmlns="http://www.w3.org/2000/svg" xmlns:xlink="http://www.w3.org/1999/xlink" x="0px" y="0px"
	 viewBox="0 0 500 500" style="enable-background:new 0 0 500 500;" xml:space="preserve">
<style type="text/css">
	.st0{fill:#FFFFFF;}
	.st1{clip-path:url(#SVGID_2_);fill:#D3D779;}
	.st2{clip-path:url(#SVGID_2_);fill-rule:evenodd;clip-rule:evenodd;fill:#FFFFFF;}
	.st3{clip-path:url(#SVGID_2_);fill:none;stroke:#F0CA36;stroke-width:12;stroke-linecap:round;stroke-miterlimit:10;}
</style>
<rect y="50" class="st0" width="500" height="385"/>
<g>
	<defs>
		<rect id="SVGID_1_" width="500" height="500"/>
	</defs>
	<clipPath id="SVGID_2_">
		<use xlink:href="#SVGID_1_"  style="overflow:visible;"/>
	</clipPath>
	<path class="st1" d="M349.5,192.2c7.6-21.2,9.4-47.5,0.3-68.4c-3.3-7.7-8.3-14.7-14.8-20c-8.1-6.7-18-9.1-28.3-10.3
		c-18.1-2.3-36.9,0.9-54.3,5.9c-11,3.2-22,7.1-32.3,12.2c1.5-0.4,3-0.8,4.5-1.2c-21.7-1.2-44-1.7-65.5,1.6
		c-11.3,1.7-21.1,5.4-26.5,16.1c-6.2,12.2-8,26.4-9.4,39.9c-1,9.2-1.6,18.6-1.6,27.9c0.9-2.1,1.8-4.2,2.6-6.4
		c-12.6,15.3-22.9,32.8-30.3,51.1c-5.8,14.2-9.8,29.7-9.3,45.1c0.3,9.1,5.1,16,10.5,22.9c13,16.6,29.3,30.9,45.2,44.7
		c13.1,11.4,26.4,22.4,40,33.1c13,10.3,27.3,17.4,44,19.9c30.4,4.6,55.6-19.5,79-35c2.4-1.6,4.9-3.2,7.5-4.6
		c2.8-1.5,3.1-1.7,5.7-2.5c1.1-0.3,2.2-0.6,3.3-0.8c-2.1,0.4,2.6-0.1,3-0.2c4.2-0.4,8.4-0.9,12.5-1.7c14.7-2.9,28.3-9.5,39.9-18.9
		c22.3-18,35.3-47.3,39.2-75.3c3.2-22.8-2.5-45.7-19.9-61.6c-12.4-11.3-28.1-18-44-22.6c-2.4-0.7-4.8-1.3-7.2-2
		c-11.2-3.1-15.9,14.2-4.8,17.4c4.1,1.2,8.2,2.3,12.3,3.6c2.5,0.8,5.1,1.7,7.6,2.7c0.6,0.2,3.8,1.5,1.9,0.7c1.6,0.7,3.2,1.4,4.8,2.2
		c2.8,1.4,5.6,2.9,8.2,4.5c1.4,0.8,2.7,1.7,4,2.7c2.3,1.6,1.2,0.8,3.3,2.6c5.7,4.9,8.5,8.2,11.9,14.6c3.1,5.9,4.9,13.7,5,21.1
		c0.2,10.3-2.1,20.2-5.2,30c-6.2,19.3-15.9,37.5-33.1,49.2c-8.7,5.9-18.3,9.8-28.6,11.9c-5.1,1-10.4,0.9-15.5,1.9
		c-4.3,0.8-8.4,2.7-12.3,4.7c-18,9.4-32.7,24.2-51.2,33c-4.5,2.1-9.3,3.8-14.2,4.8c-6,1.3-11.7,0.1-17.5-1.4
		c-8-2.1-15.6-5.3-22.4-10.1c-1.7-1.2-1.7-1.3-0.7-0.4c-0.2-0.1-0.4-0.3-0.5-0.5c-0.6-0.4-1.1-0.9-1.7-1.3c-3.2-2.5-6.4-5-9.5-7.6
		c-24.8-19.9-50.1-40.4-71.2-64.3c-1.1-1.3-2.2-2.6-3.3-3.9c-0.5-0.6-1-1.2-1.5-1.9c-1.6-2,0.7,0.9-0.2-0.3
		c-1.7-2.2-3.3-4.5-4.6-6.9c-0.4-0.8-1.6-4.1-0.7-1.2c-0.2-0.5-0.7-2.9-0.5-1.6c-0.8-5.6,0.1-11.9,1.1-17.4
		c3.8-20.2,13.4-38.9,24.7-55.8c1.9-2.8,3.8-5.5,5.8-8.2c0.4-0.6,2.9-3.8,1-1.3c0.5-0.6,1-1.2,1.4-1.8c3.1-3.9,2.9-7,3-11.5
		c0.4-15.2,1.4-29.7,5.1-44.1c0.5-1.9,1-3.7,1.6-5.6c0.3-0.9,0.6-1.7,0.9-2.6c1-2.7-0.8,1.4,0.4-1c0.7-1.4,1.4-2.8,2.3-4.1
		c1.3-2-1.2,1.2,0.3-0.4c0.2-0.2,2.1-1.8,1-1c-1.4,1,3.6-1.5,0.6-0.3c1.4-0.5,2.7-0.9,4.2-1.3c3.7-1,7.6-1.5,10.2-1.8
		c16.4-1.8,33.1-1.6,49.7-1c4.4,0.2,8.9,1,13.1-0.9c0.8-0.4,1.6-0.8,2.4-1.1c1-0.4,1.9-0.9,2.9-1.3c2-0.9-1.9,0.8,0.3-0.1
		c1-0.4,1.9-0.8,2.9-1.2c17.2-6.8,35.6-12.1,54.2-12.6c9.3-0.3,22.6-0.1,30.2,5.7c6.5,4.9,10.8,12.1,13.1,19.4
		c4.4,14.4,2.8,29.4-0.7,43.4c-0.7,2.8-1.4,5.5-2.4,8.2c-1.6,4.6,1.9,9.9,6.3,11.1C343.4,199.8,347.8,196.8,349.5,192.2"/>
	<path class="st2" d="M198.7,269c-9-19-12.7-72.9-0.5-79.2c3.4-1.8,27-7.6,50.5-8.3c18.2-0.5,36.3,2.1,44.5,12.2
		c15.1,26.7-17.9,100.1-30.5,103.9C250,301.4,207.7,288,198.7,269"/>
	<path class="st1" d="M206.4,264.5C205.7,262.9,206.3,264.1,206.4,264.5c-0.3-0.6-0.5-1.1-0.7-1.6c-0.4-1-0.7-2-1-3.1
		c-0.8-2.6-1.5-5.3-2.1-8c-1.2-5.6-2.1-11.2-2.6-16.8c-1-11-1.5-23.1,0.9-32.8c0.3-1.1,0.6-2.1,0.9-3.1c0.5-1.5-0.5,1.1,0.5-1.1
		c0.1-0.3,0.3-0.5,0.5-0.8c0.6-1-1.2,1-0.3,0.4c0.3-0.2,1.3-0.9,0.1-0.2c-1.7,1.1,2.5-0.7-1.5,0.7c5-1.8,10.3-2.9,15.5-4
		c16.6-3.3,34.9-5.7,51.7-2.7c6.1,1.1,13.3,2.7,17.5,7.6c-0.7-0.8,0.9,2.6,0.1,0.5c0.3,0.9,0.6,1.8,0.9,2.7c0.3,1,0.5,1.9,0.6,2.9
		c0.3,1.8,0.1,0.7,0.1,0.3c0.1,0.8,0.2,1.5,0.2,2.3c0.8,11.1-1.3,21-4.3,31.7c-3.1,11.2-7.2,21.8-12.4,32c-2.1,4.1-4.3,8.1-6.9,11.9
		c-0.6,0.8-1.2,1.7-1.8,2.5c-0.9,1.2,0.9-0.9-0.7,0.8c-0.5,0.5-0.9,1-1.4,1.5c-1.5,1.6-1.4,0.4-0.3,0.4c-0.1,0-0.6,0.4-0.7,0.5
		c-1.1,0.5,1.1-0.4,1.1-0.4c-0.4,0-2.8,0.6-1.6,0.4c1.1-0.1-2,0-2.6,0c-1.2,0-2.3-0.1-3.5-0.2c-4.1-0.4-11.9-2.5-17.2-4.4
		C224.6,280.8,211.4,274.4,206.4,264.5c-5.2-10.4-20.7-1.3-15.5,9.1c6.5,13,20.9,20.7,33.7,26.1c11.5,4.8,26,9.6,38.6,7.1
		c9-1.8,14.7-10.7,19-18c6.7-11.2,11.9-23.5,16-35.9c4.3-13,7.7-26.8,7.7-40.6c0-5.8-0.6-11.9-2.6-17.4c-2.8-7.8-8.6-13-16.1-16.4
		c-18.6-8.3-40.7-6.8-60.4-4.1c-8.7,1.2-17.5,2.7-25.9,5c-5.4,1.5-10,3.4-13.2,8.2c-7.5,11.1-6.9,28-6.2,40.7
		c0.8,15.2,2.8,31.3,9.3,45.3c2,4.4,8.4,5.5,12.3,3.2C207.7,274.1,208.5,268.9,206.4,264.5"/>
	<path class="st3" d="M267.8,197.8c0,0,23.4,25.6,18.4,29.7c-2.1,1.7-60.5-39.9-64.2-34.8c-2.1,2.8,68.3,58.3,64.8,61
		c-3.7,2.9-91.8-57.8-89.4-52.3c1.2,2.9,71.2,78.6,59.9,79.3c-6.3,0.4-69.1-66.1-75-56.4c-3.4,5.6,49.7,55.3,49.7,55.3"/>
</g>
<g>
	<defs>
		<rect id="SVGID_3_" x="84.5" y="92.6" width="330.7" height="314.4"/>
	</defs>
	<clipPath id="SVGID_4_">
		<use xlink:href="#SVGID_3_"  style="overflow:visible;"/>
	</clipPath>
</g>
</svg>
